<svg xmlns="http://www.w3.org/2000/svg" width="18.833" height="22.039" viewBox="0 0 18.833 22.039">
  <path id="icons8-step" d="M20.83,1.5l-2,2h1.2V13.922h-1.2l2,2,2-2h-1.2V3.5h1.2Zm-8.468.4c-.97,0-1.95,1.2-1.95,2.8a10.762,10.762,0,0,0,.545,2.8l2.987,0a15.069,15.069,0,0,0,.474-2.8C14.417,2.7,13.4,1.9,12.362,1.9Zm4.461,0a.8.8,0,1,0,.8.8A.8.8,0,0,0,16.823,1.9ZM10.956,9.113c0,1.03.38,2.4,1.493,2.4s1.5-1.28,1.493-2.4ZM5.95,13.922c-.97,0-1.95,1.2-1.95,2.8a10.762,10.762,0,0,0,.545,2.8l2.987,0a15.066,15.066,0,0,0,.474-2.8C8.006,14.723,6.99,13.922,5.95,13.922Zm4.461,0a.8.8,0,1,0,.8.8A.8.8,0,0,0,10.411,13.922Zm3.206,0a.8.8,0,1,0,.8.8A.8.8,0,0,0,13.617,13.922Zm3.206,0a.8.8,0,1,0,.8.8A.8.8,0,0,0,16.823,13.922ZM4.545,21.135c0,1.03.38,2.4,1.493,2.4s1.5-1.28,1.493-2.4Z" transform="translate(-4 -1.5)" fill="#fff"/>
</svg>
