<svg xmlns="http://www.w3.org/2000/svg" width="21.236" height="16.335" viewBox="0 0 21.236 16.335">
  <path id="icons8-image" d="M3.634,5A1.633,1.633,0,0,0,2,6.634V19.7a1.633,1.633,0,0,0,1.634,1.634H21.6A1.633,1.633,0,0,0,23.236,19.7V6.634A1.633,1.633,0,0,0,21.6,5ZM19.152,7.45a1.634,1.634,0,1,1-1.634,1.634A1.633,1.633,0,0,1,19.152,7.45ZM4.45,9.084l4.062,4.062.839.839.944.944a.884.884,0,0,0,1.246-1.254l-.941-.94,1.2-1.2,2.428,2.428,1.784,1.784a.884.884,0,0,0,1.246-1.254l-.124-.123,1.2-1.2,2.45,2.45v3.267H4.45Z" transform="translate(-2 -5)" fill="#fff"/>
</svg>
