<svg xmlns="http://www.w3.org/2000/svg" width="22.167" height="22.166" viewBox="0 0 22.167 22.166">
  <path id="icon_symmetry" d="M-2163.056-583.613a.528.528,0,0,1,.528-.528.529.529,0,0,1,.528.528.528.528,0,0,1-.528.527A.527.527,0,0,1-2163.056-583.613Zm-2.111,0a.528.528,0,0,1,.527-.528.528.528,0,0,1,.528.528.528.528,0,0,1-.528.527A.528.528,0,0,1-2165.167-583.613Zm-2.111,0a.528.528,0,0,1,.528-.528.528.528,0,0,1,.527.528.527.527,0,0,1-.527.527A.528.528,0,0,1-2167.278-583.613Zm-2.111,0a.528.528,0,0,1,.527-.528.528.528,0,0,1,.528.528.528.528,0,0,1-.528.527A.527.527,0,0,1-2169.389-583.613Zm-2.111,0a.528.528,0,0,1,.527-.528.528.528,0,0,1,.528.528.528.528,0,0,1-.528.527A.527.527,0,0,1-2171.5-583.613Zm-2.111,0a.526.526,0,0,1,0-.056h-.022v-9.972h-10.008a.528.528,0,0,1-.528-.528.528.528,0,0,1,.528-.527h10.008v-9.972h.022a.526.526,0,0,1,0-.056.528.528,0,0,1,.528-.527.527.527,0,0,1,.527.527.526.526,0,0,1,0,.056h.029v9.972h10a.528.528,0,0,1,.528.527.529.529,0,0,1-.528.528h-10v9.972h-.029a.526.526,0,0,1,0,.056.527.527,0,0,1-.527.527A.528.528,0,0,1-2173.612-583.613Zm-2.111,0a.528.528,0,0,1,.527-.528.528.528,0,0,1,.528.528.528.528,0,0,1-.528.527A.527.527,0,0,1-2175.722-583.613Zm-2.111,0a.528.528,0,0,1,.528-.528.528.528,0,0,1,.527.528.528.528,0,0,1-.527.527A.528.528,0,0,1-2177.833-583.613Zm-2.112,0a.529.529,0,0,1,.528-.528.528.528,0,0,1,.528.528.527.527,0,0,1-.528.527A.528.528,0,0,1-2179.945-583.613Zm-2.11,0a.528.528,0,0,1,.527-.528.528.528,0,0,1,.527.528.527.527,0,0,1-.527.527A.527.527,0,0,1-2182.055-583.613Zm-2.111,0a.528.528,0,0,1,.528-.528.528.528,0,0,1,.528.528.528.528,0,0,1-.528.527A.528.528,0,0,1-2184.167-583.613Zm21.111-2.111a.527.527,0,0,1,.528-.527.528.528,0,0,1,.528.527.528.528,0,0,1-.528.527A.527.527,0,0,1-2163.056-585.724Zm-21.111,0a.528.528,0,0,1,.528-.527.528.528,0,0,1,.528.527.528.528,0,0,1-.528.527A.528.528,0,0,1-2184.167-585.724Zm21.111-2.111a.527.527,0,0,1,.528-.527.528.528,0,0,1,.528.527.529.529,0,0,1-.528.528A.528.528,0,0,1-2163.056-587.836Zm-21.111,0a.528.528,0,0,1,.528-.527.528.528,0,0,1,.528.527.528.528,0,0,1-.528.528A.528.528,0,0,1-2184.167-587.836Zm21.111-2.11a.528.528,0,0,1,.528-.528.529.529,0,0,1,.528.528.528.528,0,0,1-.528.527A.527.527,0,0,1-2163.056-589.946Zm-21.111,0a.528.528,0,0,1,.528-.528.528.528,0,0,1,.528.528.528.528,0,0,1-.528.527A.528.528,0,0,1-2184.167-589.946Zm21.111-2.111a.527.527,0,0,1,.528-.527.528.528,0,0,1,.528.527.528.528,0,0,1-.528.527A.527.527,0,0,1-2163.056-592.058Zm-21.111,0a.528.528,0,0,1,.528-.527.528.528,0,0,1,.528.527.528.528,0,0,1-.528.527A.528.528,0,0,1-2184.167-592.058Zm21.111-4.222a.528.528,0,0,1,.528-.528.529.529,0,0,1,.528.528.528.528,0,0,1-.528.527A.527.527,0,0,1-2163.056-596.28Zm-21.111,0a.528.528,0,0,1,.528-.528.528.528,0,0,1,.528.528.528.528,0,0,1-.528.527A.528.528,0,0,1-2184.167-596.28Zm21.111-2.111a.527.527,0,0,1,.528-.527.528.528,0,0,1,.528.527.528.528,0,0,1-.528.527A.527.527,0,0,1-2163.056-598.391Zm-21.111,0a.528.528,0,0,1,.528-.527.528.528,0,0,1,.528.527.528.528,0,0,1-.528.527A.528.528,0,0,1-2184.167-598.391Zm21.111-2.111a.527.527,0,0,1,.528-.527.528.528,0,0,1,.528.527.529.529,0,0,1-.528.528A.528.528,0,0,1-2163.056-600.5Zm-21.111,0a.528.528,0,0,1,.528-.527.528.528,0,0,1,.528.527.528.528,0,0,1-.528.528A.528.528,0,0,1-2184.167-600.5Zm21.111-2.111a.528.528,0,0,1,.528-.528.529.529,0,0,1,.528.528.528.528,0,0,1-.528.527A.527.527,0,0,1-2163.056-602.613Zm-21.111,0a.528.528,0,0,1,.528-.528.528.528,0,0,1,.528.528.528.528,0,0,1-.528.527A.528.528,0,0,1-2184.167-602.613Zm21.111-2.111a.527.527,0,0,1,.528-.527.528.528,0,0,1,.528.527.528.528,0,0,1-.528.527A.527.527,0,0,1-2163.056-604.724Zm-2.111,0a.528.528,0,0,1,.527-.527.528.528,0,0,1,.528.527.528.528,0,0,1-.528.527A.528.528,0,0,1-2165.167-604.724Zm-2.111,0a.528.528,0,0,1,.528-.527.527.527,0,0,1,.527.527.527.527,0,0,1-.527.527A.528.528,0,0,1-2167.278-604.724Zm-2.111,0a.527.527,0,0,1,.527-.527.528.528,0,0,1,.528.527.528.528,0,0,1-.528.527A.527.527,0,0,1-2169.389-604.724Zm-2.111,0a.527.527,0,0,1,.527-.527.528.528,0,0,1,.528.527.528.528,0,0,1-.528.527A.527.527,0,0,1-2171.5-604.724Zm-4.222,0a.527.527,0,0,1,.527-.527.528.528,0,0,1,.528.527.528.528,0,0,1-.528.527A.527.527,0,0,1-2175.722-604.724Zm-2.111,0a.528.528,0,0,1,.528-.527.528.528,0,0,1,.527.527.528.528,0,0,1-.527.527A.528.528,0,0,1-2177.833-604.724Zm-2.112,0a.528.528,0,0,1,.528-.527.527.527,0,0,1,.528.527.527.527,0,0,1-.528.527A.528.528,0,0,1-2179.945-604.724Zm-2.11,0a.527.527,0,0,1,.527-.527.527.527,0,0,1,.527.527.527.527,0,0,1-.527.527A.527.527,0,0,1-2182.055-604.724Zm-2.111,0a.528.528,0,0,1,.528-.527.528.528,0,0,1,.528.527.528.528,0,0,1-.528.527A.528.528,0,0,1-2184.167-604.724Z" transform="translate(2184.167 605.252)" fill="#fff"/>
</svg>
