<svg xmlns="http://www.w3.org/2000/svg" width="21.046" height="22.171" viewBox="0 0 21.046 22.171">
  <path id="icons8-brain" d="M11.976,2.926a4,4,0,0,0-.628.03,2.75,2.75,0,0,0-1.287.5,3.807,3.807,0,0,0-1.2,2.881A8.484,8.484,0,0,0,5.8,8.109a5.091,5.091,0,0,0-1.69,2.9,5.968,5.968,0,0,0,1.01,4.052,6.059,6.059,0,0,0-.3,1.869,5.352,5.352,0,0,0,2.328,4.61,5.536,5.536,0,0,0,1.75.783,3.065,3.065,0,0,0,1.129,2.212,4.27,4.27,0,0,0,2.427.563,3.088,3.088,0,0,0,2-.643c.044-.036.084-.076.126-.115.041.039.082.08.126.115a3.088,3.088,0,0,0,2,.643,4.274,4.274,0,0,0,2.428-.563,3.064,3.064,0,0,0,1.128-2.212A5.537,5.537,0,0,0,22,21.537a5.352,5.352,0,0,0,2.328-4.61,6.06,6.06,0,0,0-.3-1.87,5.969,5.969,0,0,0,1.01-4.051,5.091,5.091,0,0,0-1.69-2.9,8.481,8.481,0,0,0-3.059-1.77,3.807,3.807,0,0,0-1.2-2.882,2.75,2.75,0,0,0-1.287-.5,4.876,4.876,0,0,0-1.2.013,3.448,3.448,0,0,0-1.881.833c-.052.046-.1.1-.146.154-.05-.05-.094-.108-.146-.154a3.448,3.448,0,0,0-1.881-.833C12.369,2.949,12.177,2.932,11.976,2.926Zm-.023,1.585c.131,0,.268.012.411.029a1.965,1.965,0,0,1,1.017.448,1,1,0,0,1,.391.752V22.485a.841.841,0,0,1-.322.741,1.553,1.553,0,0,1-.988.288,3.163,3.163,0,0,1-1.567-.3c-.307-.2-.548-.516-.548-1.546a.79.79,0,0,0-.685-.783,4.388,4.388,0,0,1-1.643-.665,3.573,3.573,0,0,1-1.624-3.294c0-1.861.819-2.819,1.669-3.149a1.87,1.87,0,0,1,2.395.921.791.791,0,1,0,1.356-.813A3.552,3.552,0,0,0,7.492,12.3a3.786,3.786,0,0,0-1.421,1.07,4.017,4.017,0,0,1-.4-2.1A3.5,3.5,0,0,1,6.859,9.28a8.7,8.7,0,0,1,2.915-1.6.79.79,0,0,0,.573-.76c0-1.445.342-1.96.647-2.184a1.24,1.24,0,0,1,.587-.2A2.665,2.665,0,0,1,11.953,4.511Zm5.239,0a2.665,2.665,0,0,1,.373.016,1.236,1.236,0,0,1,.586.2c.306.224.647.738.647,2.184a.79.79,0,0,0,.573.76,8.7,8.7,0,0,1,2.915,1.6,3.5,3.5,0,0,1,1.192,1.992,4.015,4.015,0,0,1-.4,2.1,3.784,3.784,0,0,0-1.421-1.07,3.552,3.552,0,0,0-4.323,1.582.79.79,0,1,0,1.356.813,1.869,1.869,0,0,1,2.395-.921c.85.331,1.669,1.289,1.669,3.149a3.573,3.573,0,0,1-1.624,3.294,4.387,4.387,0,0,1-1.641.665.79.79,0,0,0-.686.783c0,1.03-.24,1.342-.548,1.546a3.159,3.159,0,0,1-1.566.3,1.553,1.553,0,0,1-.988-.288.841.841,0,0,1-.323-.741V5.74a1,1,0,0,1,.391-.752,1.969,1.969,0,0,1,1.018-.448C16.924,4.524,17.062,4.514,17.193,4.511ZM11.956,7.7a.79.79,0,0,0-.8.992,1.305,1.305,0,0,1-.039.585c-.1.257-.2.541-1.3.541a.79.79,0,1,0,0,1.581A2.806,2.806,0,0,0,12.6,9.829a2.672,2.672,0,0,0,.093-1.523.79.79,0,0,0-.738-.609Zm5.288,0a.79.79,0,0,0-.793.609,2.672,2.672,0,0,0,.093,1.523A2.806,2.806,0,0,0,19.325,11.4a.79.79,0,1,0,0-1.581c-1.107,0-1.2-.285-1.3-.541a1.305,1.305,0,0,1-.039-.585.79.79,0,0,0-.741-.992ZM9.861,16.632a2.145,2.145,0,0,0-.5.057.79.79,0,1,0,.383,1.533.894.894,0,0,1,.509.072c.244.122.616.391.616,1.8a.79.79,0,1,0,1.581,0c0-1.756-.682-2.805-1.491-3.21A2.417,2.417,0,0,0,9.861,16.632Zm9.424,0a2.421,2.421,0,0,0-1.1.248c-.81.4-1.491,1.454-1.491,3.21a.79.79,0,1,0,1.581,0c0-1.405.373-1.674.617-1.8a.891.891,0,0,1,.508-.072.79.79,0,1,0,.384-1.534A2.153,2.153,0,0,0,19.285,16.632Z" transform="translate(-4.05 -2.925)" fill="#fff"/>
</svg>
