<svg xmlns="http://www.w3.org/2000/svg" width="19.504" height="19.514" viewBox="0 0 19.504 19.514">
  <path id="icons8-crop" d="M6.636,2.978a1.219,1.219,0,0,0-1.2,1.236V5.433H4.218a1.218,1.218,0,1,0,0,2.437H5.437V18.024a2.049,2.049,0,0,0,2.031,2.031H17.622v1.218a1.218,1.218,0,1,0,2.437,0V20.055h1.219a1.219,1.219,0,1,0,0-2.437H9.023l8.6-8.6v6.975h2.437V6.582l2.2-2.2a.812.812,0,1,0-1.149-1.149l-2.2,2.2H9.5V7.87h6.975l-8.6,8.6V4.214A1.219,1.219,0,0,0,6.636,2.978Z" transform="translate(-3 -2.978)" fill="#fff"/>
</svg>
