<svg xmlns="http://www.w3.org/2000/svg" width="22.005" height="22.005" viewBox="0 0 22.005 22.005">
  <path id="icons8-processor" d="M7.287,1a.786.786,0,1,0,.786.786A.786.786,0,0,0,7.287,1Zm3.144,0a.786.786,0,1,0,.786.786A.786.786,0,0,0,10.431,1Zm3.144,0a.786.786,0,1,0,.786.786A.786.786,0,0,0,13.575,1Zm3.144,0a.786.786,0,1,0,.786.786A.786.786,0,0,0,16.718,1Zm-11,3.144A1.571,1.571,0,0,0,4.144,5.715V18.29a1.571,1.571,0,0,0,1.572,1.572H18.29a1.571,1.571,0,0,0,1.572-1.572V5.715A1.571,1.571,0,0,0,18.29,4.144ZM1.786,6.5a.786.786,0,1,0,.786.786A.786.786,0,0,0,1.786,6.5Zm5.894,0A1.179,1.179,0,1,1,6.5,7.68,1.179,1.179,0,0,1,7.68,6.5Zm14.539,0a.786.786,0,1,0,.786.786A.786.786,0,0,0,22.22,6.5ZM1.786,9.645a.786.786,0,1,0,.786.786A.786.786,0,0,0,1.786,9.645Zm20.434,0a.786.786,0,1,0,.786.786A.786.786,0,0,0,22.22,9.645ZM1.786,12.789a.786.786,0,1,0,.786.786A.786.786,0,0,0,1.786,12.789Zm20.434,0a.786.786,0,1,0,.786.786A.786.786,0,0,0,22.22,12.789Zm-5.894,2.358a1.179,1.179,0,1,1-1.179,1.179A1.179,1.179,0,0,1,16.325,15.146Zm-14.539.786a.786.786,0,1,0,.786.786A.786.786,0,0,0,1.786,15.932Zm20.434,0a.786.786,0,1,0,.786.786A.786.786,0,0,0,22.22,15.932Zm-14.932,5.5a.786.786,0,1,0,.786.786A.786.786,0,0,0,7.287,21.434Zm3.144,0a.786.786,0,1,0,.786.786A.786.786,0,0,0,10.431,21.434Zm3.144,0a.786.786,0,1,0,.786.786A.786.786,0,0,0,13.575,21.434Zm3.144,0a.786.786,0,1,0,.786.786A.786.786,0,0,0,16.718,21.434Z" transform="translate(-1 -1)" fill="#fff"/>
</svg>
