<svg xmlns="http://www.w3.org/2000/svg" xmlns:xlink="http://www.w3.org/1999/xlink" width="112.5" height="109.001" viewBox="0 0 112.5 109.001">
  <defs>
    <filter id="Path_9" x="0" y="0" width="94" height="109.001" filterUnits="userSpaceOnUse">
      <feOffset dy="3" input="SourceAlpha"/>
      <feGaussianBlur stdDeviation="7.5" result="blur"/>
      <feFlood flood-opacity="0.502"/>
      <feComposite operator="in" in2="blur"/>
      <feComposite in="SourceGraphic"/>
    </filter>
  </defs>
  <g id="logo_big" transform="translate(0.5 12.498)">
    <path id="Path_8" data-name="Path 8" d="M-926.793-100.333H-942v-5.442a30.954,30.954,0,0,0,16,4.442,31.035,31.035,0,0,0,31-31,31.036,31.036,0,0,0-31-31,30.947,30.947,0,0,0-16,4.443v-5.441h15.207v.009c.4-.008.634-.011.845-.011a33.564,33.564,0,0,1,12.825,2.516,32.906,32.906,0,0,1,10.473,6.858,31.86,31.86,0,0,1,7.06,10.172A31.006,31.006,0,0,1-893-132.333a31.016,31.016,0,0,1-2.589,12.456,31.856,31.856,0,0,1-7.06,10.171,32.905,32.905,0,0,1-10.473,6.858,33.58,33.58,0,0,1-12.825,2.515c-.332,0-.6,0-.845-.01v.01Zm.793-1.5a30.311,30.311,0,0,1-11.872-2.4A30.523,30.523,0,0,1-942-106.359v-2.992a27.829,27.829,0,0,0,16,5.018,28.032,28.032,0,0,0,28-28,28.032,28.032,0,0,0-28-28,27.831,27.831,0,0,0-16,5.019v-2.993a30.621,30.621,0,0,1,4.128-2.129,30.311,30.311,0,0,1,11.872-2.4,30.3,30.3,0,0,1,11.872,2.4,30.4,30.4,0,0,1,9.7,6.537,30.409,30.409,0,0,1,6.537,9.7,30.316,30.316,0,0,1,2.4,11.872,30.309,30.309,0,0,1-2.4,11.872,30.4,30.4,0,0,1-6.537,9.695,30.387,30.387,0,0,1-9.7,6.537,30.3,30.3,0,0,1-11.872,2.4Zm0-3a27.3,27.3,0,0,1-10.7-2.161,27.4,27.4,0,0,1-5.3-2.967v-2.649c.083-.1.165-.206.247-.31A25.057,25.057,0,0,0-926-107.333a25.028,25.028,0,0,0,25-25,25.029,25.029,0,0,0-25-25,25.062,25.062,0,0,0-15.753,5.588c-.072-.092-.15-.19-.247-.31V-154.7a27.5,27.5,0,0,1,5.3-2.968,27.331,27.331,0,0,1,10.7-2.161,27.34,27.34,0,0,1,10.7,2.161,27.426,27.426,0,0,1,8.741,5.894,27.408,27.408,0,0,1,5.894,8.741,27.341,27.341,0,0,1,2.161,10.7,27.323,27.323,0,0,1-2.161,10.7,27.387,27.387,0,0,1-5.894,8.742A27.371,27.371,0,0,1-915.3-107a27.306,27.306,0,0,1-10.7,2.164Zm0-3a24.345,24.345,0,0,1-9.536-1.925,24.428,24.428,0,0,1-5.911-3.556c.5-.659.987-1.348,1.439-2.05A21.663,21.663,0,0,0-926-110.334a22.025,22.025,0,0,0,22-22,22.025,22.025,0,0,0-22-22,21.665,21.665,0,0,0-14.009,5.032c-.448-.694-.932-1.384-1.439-2.049a24.446,24.446,0,0,1,5.911-3.557A24.341,24.341,0,0,1-926-156.833a24.334,24.334,0,0,1,9.536,1.925,24.422,24.422,0,0,1,7.788,5.251,24.43,24.43,0,0,1,5.252,7.788,24.361,24.361,0,0,1,1.925,9.536,24.354,24.354,0,0,1-1.925,9.536,24.418,24.418,0,0,1-5.252,7.788,24.4,24.4,0,0,1-7.788,5.251A24.338,24.338,0,0,1-926-107.834Zm0-3a21.365,21.365,0,0,1-8.368-1.689,21.4,21.4,0,0,1-5.369-3.27c.444-.713.867-1.456,1.255-2.207A18.964,18.964,0,0,0-926-113.333a19.021,19.021,0,0,0,19-19,19.021,19.021,0,0,0-19-19,18.965,18.965,0,0,0-12.482,4.667c-.384-.743-.806-1.486-1.255-2.208a21.436,21.436,0,0,1,5.369-3.27A21.381,21.381,0,0,1-926-153.833a21.382,21.382,0,0,1,8.369,1.689,21.431,21.431,0,0,1,6.834,4.608,21.444,21.444,0,0,1,4.608,6.834,21.352,21.352,0,0,1,1.689,8.369,21.338,21.338,0,0,1-1.689,8.368,21.41,21.41,0,0,1-4.608,6.835,21.417,21.417,0,0,1-6.834,4.608A21.366,21.366,0,0,1-926-110.833Zm0-3a18.375,18.375,0,0,1-7.2-1.453,18.416,18.416,0,0,1-5.045-3.178c.393-.792.757-1.611,1.082-2.437A15.9,15.9,0,0,0-926-116.333a16.018,16.018,0,0,0,16-16,16.018,16.018,0,0,0-16-16,15.9,15.9,0,0,0-11.164,4.57c-.322-.818-.686-1.638-1.082-2.437a18.465,18.465,0,0,1,5.045-3.18,18.409,18.409,0,0,1,7.2-1.454,18.409,18.409,0,0,1,7.2,1.454,18.462,18.462,0,0,1,5.881,3.965,18.448,18.448,0,0,1,3.965,5.881,18.392,18.392,0,0,1,1.454,7.2,18.384,18.384,0,0,1-1.454,7.2,18.43,18.43,0,0,1-3.965,5.881,18.414,18.414,0,0,1-5.881,3.965,18.375,18.375,0,0,1-7.2,1.454Zm0-3a15.4,15.4,0,0,1-10.96-4.54l-.009-.009-.008-.008c.337-.9.636-1.825.888-2.754A12.956,12.956,0,0,0-926-119.334a13.015,13.015,0,0,0,13-13,13.015,13.015,0,0,0-13-13,12.957,12.957,0,0,0-10.089,4.811c-.25-.92-.548-1.846-.888-2.754l.017-.017a15.4,15.4,0,0,1,10.96-4.54,15.4,15.4,0,0,1,10.96,4.54,15.4,15.4,0,0,1,4.54,10.96,15.4,15.4,0,0,1-4.54,10.96,15.4,15.4,0,0,1-10.96,4.54Zm0-3a12.419,12.419,0,0,1-8.839-3.661,12.766,12.766,0,0,1-1.094-1.247,31.265,31.265,0,0,0,.933-7.592,31.269,31.269,0,0,0-.933-7.592,12.751,12.751,0,0,1,1.094-1.247A12.421,12.421,0,0,1-926-144.833a12.418,12.418,0,0,1,8.839,3.661,12.419,12.419,0,0,1,3.661,8.839,12.415,12.415,0,0,1-3.661,8.839A12.415,12.415,0,0,1-926-119.833Zm0-20.5a8.009,8.009,0,0,0-8,8,8.009,8.009,0,0,0,8,8,8.009,8.009,0,0,0,8-8,8.009,8.009,0,0,0-8-8Zm0,9a1,1,0,0,1-1-1,1,1,0,0,1,1-1,1,1,0,0,1,1,1A1,1,0,0,1-926-131.333Z" transform="translate(1005 171.332)" fill="#fd0"/>
    <g transform="matrix(1, 0, 0, 1, -0.5, -12.5)" filter="url(#Path_9)">
      <path id="Path_9-2" data-name="Path 9" d="M16.053,59a28.6,28.6,0,0,0,10.925-2.14,27.931,27.931,0,0,0,8.889-5.82,26.883,26.883,0,0,0,5.96-8.581,26.255,26.255,0,0,0,0-20.919,26.883,26.883,0,0,0-5.96-8.581,27.931,27.931,0,0,0-8.889-5.82A28.6,28.6,0,0,0,16.053,5c-.208,0-.436,0-.741.009l-5.1.107V5H5V59h5.207v-.143l5.131.135c.221.006.454.009.714.009m0,5c-.283,0-.564,0-.846-.01V64H0V0H15.207V.01c.281-.01.563-.01.846-.01C34.249,0,49,14.327,49,32S34.249,64,16.053,64Z" transform="translate(22.5 19.5)" fill="#fd0"/>
    </g>
    <path id="Path_10" data-name="Path 10" d="M-945-86.333a38.924,38.924,0,0,1-12.71-2.118,38.846,38.846,0,0,1-10.958-5.882h.827a38.414,38.414,0,0,0,7.855,4.475A38.254,38.254,0,0,0-945-86.833a38.248,38.248,0,0,0,14.986-3.026,38.363,38.363,0,0,0,12.238-8.251,38.367,38.367,0,0,0,8.251-12.237,38.271,38.271,0,0,0,3.025-14.986,38.269,38.269,0,0,0-3.025-14.986,38.381,38.381,0,0,0-8.251-12.238,38.377,38.377,0,0,0-12.238-8.25A38.25,38.25,0,0,0-945-163.833a38.255,38.255,0,0,0-14.986,3.026,38.364,38.364,0,0,0-11.439,7.475h-.722a38.8,38.8,0,0,1,27.147-11,38.757,38.757,0,0,1,15.181,3.065,38.871,38.871,0,0,1,12.4,8.358,38.869,38.869,0,0,1,8.358,12.4A38.753,38.753,0,0,1-906-125.333a38.754,38.754,0,0,1-3.065,15.18,38.872,38.872,0,0,1-8.358,12.4,38.872,38.872,0,0,1-12.4,8.358A38.756,38.756,0,0,1-945-86.333Zm0-4a35.113,35.113,0,0,1-8.926-1.148A34.809,34.809,0,0,1-962-94.732V-95.3a34.7,34.7,0,0,0,3.571,1.759A34.283,34.283,0,0,0-945-90.833a34.276,34.276,0,0,0,13.429-2.711,34.4,34.4,0,0,0,10.966-7.393,34.379,34.379,0,0,0,7.393-10.967,34.283,34.283,0,0,0,2.712-13.429,34.284,34.284,0,0,0-2.712-13.429,34.371,34.371,0,0,0-7.393-10.966,34.37,34.37,0,0,0-10.966-7.394A34.276,34.276,0,0,0-945-159.833a34.282,34.282,0,0,0-13.429,2.711,34.442,34.442,0,0,0-6.737,3.789H-966a34.854,34.854,0,0,1,9.74-5.148A34.943,34.943,0,0,1-945-160.333a34.781,34.781,0,0,1,13.624,2.75,34.884,34.884,0,0,1,11.125,7.5,34.884,34.884,0,0,1,7.5,11.125A34.782,34.782,0,0,1-910-125.333a34.78,34.78,0,0,1-2.75,13.624,34.883,34.883,0,0,1-7.5,11.125,34.884,34.884,0,0,1-11.125,7.5A34.781,34.781,0,0,1-945-90.333Zm0-7a27.946,27.946,0,0,1-9.13-1.522,27.886,27.886,0,0,1-7.87-4.227v-.631a27.393,27.393,0,0,0,6.3,3.719,27.316,27.316,0,0,0,10.7,2.16A27.318,27.318,0,0,0-934.3-100a27.4,27.4,0,0,0,8.741-5.893,27.391,27.391,0,0,0,5.894-8.742,27.325,27.325,0,0,0,2.161-10.7,27.331,27.331,0,0,0-2.161-10.7,27.4,27.4,0,0,0-5.894-8.741,27.41,27.41,0,0,0-8.741-5.894,27.333,27.333,0,0,0-10.7-2.161,27.331,27.331,0,0,0-10.7,2.161,27.415,27.415,0,0,0-6.3,3.72v-.631a27.885,27.885,0,0,1,7.87-4.227,27.945,27.945,0,0,1,9.13-1.522,27.825,27.825,0,0,1,10.9,2.2,27.9,27.9,0,0,1,8.9,6,27.906,27.906,0,0,1,6,8.9,27.824,27.824,0,0,1,2.2,10.9,27.826,27.826,0,0,1-2.2,10.9,27.905,27.905,0,0,1-6,8.9,27.906,27.906,0,0,1-8.9,6A27.825,27.825,0,0,1-945-97.333Zm0-3A24.916,24.916,0,0,1-962-107v-.688a24.424,24.424,0,0,0,7.464,4.933A24.353,24.353,0,0,0-945-100.833a24.346,24.346,0,0,0,9.536-1.925,24.416,24.416,0,0,0,7.788-5.251,24.426,24.426,0,0,0,5.251-7.788,24.352,24.352,0,0,0,1.925-9.536,24.354,24.354,0,0,0-1.925-9.536,24.42,24.42,0,0,0-5.251-7.788,24.415,24.415,0,0,0-7.788-5.251A24.331,24.331,0,0,0-945-149.833a24.338,24.338,0,0,0-9.536,1.925A24.426,24.426,0,0,0-962-142.975v-.688a24.917,24.917,0,0,1,17-6.67,24.844,24.844,0,0,1,9.731,1.965,24.916,24.916,0,0,1,7.947,5.358,24.915,24.915,0,0,1,5.358,7.947,24.845,24.845,0,0,1,1.964,9.73,24.846,24.846,0,0,1-1.965,9.731,24.916,24.916,0,0,1-5.358,7.947,24.916,24.916,0,0,1-7.947,5.358,24.845,24.845,0,0,1-9.73,1.964Zm0-3a21.94,21.94,0,0,1-17-8.035v-.8a21.8,21.8,0,0,0,1.8,2.037,21.423,21.423,0,0,0,6.835,4.608,21.375,21.375,0,0,0,8.365,1.69,21.376,21.376,0,0,0,8.369-1.689,21.429,21.429,0,0,0,6.834-4.608,21.426,21.426,0,0,0,4.608-6.835,21.351,21.351,0,0,0,1.689-8.368,21.361,21.361,0,0,0-1.689-8.369,21.43,21.43,0,0,0-4.608-6.834,21.43,21.43,0,0,0-6.834-4.608A21.376,21.376,0,0,0-945-146.833a21.374,21.374,0,0,0-8.368,1.689,21.424,21.424,0,0,0-6.835,4.608A21.779,21.779,0,0,0-962-138.5v-.8a21.939,21.939,0,0,1,17-8.036,21.856,21.856,0,0,1,15.557,6.444A21.857,21.857,0,0,1-923-125.333a21.855,21.855,0,0,1-6.444,15.556A21.857,21.857,0,0,1-945-103.334Zm-33-1.207h0a38.883,38.883,0,0,1-6-20.79,38.882,38.882,0,0,1,6-20.793v.946a38.658,38.658,0,0,0-2.474,4.861A38.269,38.269,0,0,0-983.5-125.33a38.269,38.269,0,0,0,3.025,14.986A38.65,38.65,0,0,0-978-105.486Zm33-1.793a18.944,18.944,0,0,1-10.121-2.917A19.063,19.063,0,0,1-962-116.839v-1.185a18.432,18.432,0,0,0,3.919,5.773,18.438,18.438,0,0,0,5.881,3.965,18.381,18.381,0,0,0,7.2,1.453,18.38,18.38,0,0,0,7.2-1.453,18.432,18.432,0,0,0,5.881-3.965,18.449,18.449,0,0,0,3.965-5.881,18.4,18.4,0,0,0,1.453-7.2,18.4,18.4,0,0,0-1.453-7.2,18.448,18.448,0,0,0-3.965-5.881,18.451,18.451,0,0,0-5.881-3.965,18.4,18.4,0,0,0-7.2-1.453,18.4,18.4,0,0,0-7.2,1.453,18.457,18.457,0,0,0-5.881,3.965A18.433,18.433,0,0,0-962-132.642v-1.185a19.062,19.062,0,0,1,6.879-7.589A18.944,18.944,0,0,1-945-144.333a18.876,18.876,0,0,1,13.435,5.565A18.876,18.876,0,0,1-926-125.333a18.876,18.876,0,0,1-5.565,13.435A18.876,18.876,0,0,1-945-106.333Zm0-3a15.894,15.894,0,0,1-11.313-4.687A15.9,15.9,0,0,1-961-125.333a15.9,15.9,0,0,1,4.686-11.314A15.9,15.9,0,0,1-945-141.333a15.9,15.9,0,0,1,11.314,4.686A15.9,15.9,0,0,1-929-125.333a15.9,15.9,0,0,1-4.686,11.314A15.9,15.9,0,0,1-945-109.333Zm0-31.5a15.4,15.4,0,0,0-10.96,4.54,15.4,15.4,0,0,0-4.54,10.96,15.4,15.4,0,0,0,4.54,10.96,15.4,15.4,0,0,0,10.96,4.54,15.4,15.4,0,0,0,10.96-4.54,15.4,15.4,0,0,0,4.54-10.96,15.4,15.4,0,0,0-4.54-10.96,15.4,15.4,0,0,0-10.96-4.54Zm0,28.5a12.914,12.914,0,0,1-9.192-3.808A12.915,12.915,0,0,1-958-125.333a12.916,12.916,0,0,1,3.808-9.193A12.914,12.914,0,0,1-945-138.334a12.915,12.915,0,0,1,9.193,3.808A12.915,12.915,0,0,1-932-125.333a12.914,12.914,0,0,1-3.808,9.192A12.916,12.916,0,0,1-945-112.334Zm0-25.5a12.421,12.421,0,0,0-8.839,3.661,12.418,12.418,0,0,0-3.661,8.839,12.418,12.418,0,0,0,3.661,8.839A12.422,12.422,0,0,0-945-112.833a12.418,12.418,0,0,0,8.839-3.661,12.415,12.415,0,0,0,3.661-8.839,12.415,12.415,0,0,0-3.661-8.839A12.418,12.418,0,0,0-945-137.833Zm-33,24.184a34.908,34.908,0,0,1-2-11.684,34.908,34.908,0,0,1,2-11.69v1.592a34.462,34.462,0,0,0-1.5,10.1,34.462,34.462,0,0,0,1.5,10.1v1.586Zm33-3.684a8.009,8.009,0,0,1-8-8,8.009,8.009,0,0,1,8-8,8.009,8.009,0,0,1,8,8,8.009,8.009,0,0,1-8,8Zm0-9a1,1,0,0,0-1,1,1,1,0,0,0,1,1,1,1,0,0,0,1-1A1,1,0,0,0-945-126.333Z" transform="translate(984 164.332)" fill="#fd0"/>
  </g>
</svg>
